{"glyphs":{":":{"x_min":0,"x_max":240,"ha":240,"o":"m 62 1 b 109 1 151 42 151 89 b 151 121 127 149 89 149 b 41 149 0 107 0 61 b 0 32 22 1 62 1 z m 152 245 b 198 245 240 287 240 334 b 240 366 216 394 178 394 b 131 394 89 352 89 306 b 89 277 111 245 152 245 z"},"$":{"x_min":0,"x_max":445,"ha":445,"o":"m 385 623 b 402 665 413 692 413 694 b 413 711 372 724 368 714 b 358 689 347 661 335 630 b 246 629 140 568 140 448 b 140 372 167 328 192 289 b 160 212 129 139 105 80 b 101 85 99 91 99 99 b 99 142 128 193 137 212 b 154 246 74 271 53 233 b 36 203 10 152 10 106 b 11 64 31 26 77 9 b 62 -31 53 -58 53 -67 b 53 -80 93 -92 97 -78 b 102 -61 112 -34 125 0 b 129 0 132 0 136 0 b 258 0 334 76 334 188 b 334 263 300 312 273 357 b 303 429 332 498 356 554 b 360 550 363 544 363 537 b 363 523 344 474 336 458 b 323 430 402 410 419 441 b 445 487 464 594 385 623 z m 233 182 b 233 137 196 82 153 70 b 173 120 197 177 222 236 b 229 220 233 202 233 182 z m 240 449 b 240 496 268 541 305 557 b 286 511 266 463 245 414 b 242 425 240 437 240 449 z"},"?":{"x_min":0,"x_max":354,"ha":354,"o":"m 104 0 b 150 0 192 42 192 89 b 192 121 168 149 130 149 b 83 149 41 107 41 61 b 41 31 63 0 104 0 z m 121 501 b 121 467 211 460 211 498 b 211 536 270 613 322 613 b 344 613 354 605 354 583 b 354 475 85 333 85 221 b 85 188 167 183 167 208 b 167 297 441 450 441 558 b 441 606 410 660 318 660 b 190 660 121 542 121 501 z"},"<":{"x_min":0,"x_max":389,"ha":389,"o":"m 297 452 b 281 444 85 351 57 336 b 29 322 20 295 35 276 b 49 256 131 132 141 120 b 151 108 221 143 206 167 b 192 191 131 282 131 282 b 131 282 316 376 334 385 b 353 393 327 465 297 452 z"},"'":{"x_min":0,"x_max":316,"ha":316,"o":"m 170 461 b 176 476 256 620 256 631 b 256 651 189 669 178 656 b 170 647 110 504 110 476 b 110 458 162 439 170 461 z"},"=":{"x_min":0,"x_max":420,"ha":420,"o":"m 321 314 b 358 314 374 357 374 380 b 374 387 369 392 361 392 b 358 392 113 392 108 392 b 76 392 55 353 55 327 b 55 322 57 314 71 314 b 76 314 321 314 321 314 z m 252 157 b 289 157 305 200 305 223 b 305 230 300 235 292 235 b 289 235 44 235 39 235 b 7 235 -14 196 -14 170 b -14 165 -12 157 2 157 z"},"a":{"x_min":0,"x_max":500,"ha":500,"o":"m 500 270 b 458 181 373 73 335 73 b 325 73 316 79 316 97 b 316 145 398 290 398 312 b 398 321 380 330 359 336 b 363 351 364 366 364 380 b 364 434 305 464 268 464 b 131 464 -60 253 -60 101 b -60 15 13 0 35 0 b 91 0 151 34 205 83 b 209 -2 283 0 283 0 b 393 0 486 126 545 249 b 552 263 507 284 500 270 z m 70 66 b 60 66 51 71 51 90 b 51 171 202 371 267 371 b 283 371 287 358 287 346 b 287 267 137 66 70 66 z"},"L":{"x_min":0,"x_max":673,"ha":673,"o":"m 638 -26 b 613 -43 586 -53 557 -53 b 457 -53 358 43 264 108 b 288 139 311 173 333 210 l 344 210 b 561 210 763 426 763 549 b 763 608 735 661 660 661 b 466 661 352 468 262 302 b 164 339 180 438 203 478 b 211 488 193 508 176 508 b 170 508 163 505 159 498 b 114 424 103 284 224 231 b 209 203 195 178 180 155 b 161 162 142 167 124 167 b 106 167 95 130 116 130 b 130 130 144 127 157 122 b 132 89 107 68 80 68 b 50 68 49 93 67 115 b 76 125 55 150 44 150 b 43 150 42 150 41 149 b 16 134 -6 108 -6 82 b -6 82 -6 0 99 0 b 148 0 191 27 231 70 b 316 -9 405 -138 544 -138 b 609 -138 657 -81 670 -51 b 676 -38 660 -22 647 -22 b 644 -22 641 -24 638 -26 z m 659 574 b 676 574 679 563 679 550 b 679 464 529 309 381 290 b 464 433 547 574 659 574 z"},"3":{"x_min":0,"x_max":456,"ha":456,"o":"m 444 539 b 444 638 367 660 302 660 b 162 660 67 556 67 470 b 67 426 158 407 158 440 b 158 512 261 593 319 593 b 346 593 351 569 351 555 b 351 479 253 373 159 373 b 118 373 117 301 154 301 b 155 301 156 301 158 301 b 161 301 164 301 168 301 b 202 303 251 305 251 251 b 251 190 172 67 95 67 b 55 67 64 128 74 169 b 86 211 -1 223 -12 186 b -18 171 -80 0 101 0 b 233 0 360 125 360 251 b 360 300 335 329 304 346 b 383 395 444 473 444 539 z"},";":{"x_min":0,"x_max":246,"ha":246,"o":"m 153 245 b 200 245 242 287 242 334 b 242 366 218 394 180 394 b 132 394 91 352 91 306 b 91 277 113 245 153 245 z m 151 89 b 151 121 127 149 89 149 b 41 149 0 107 0 61 b 0 40 12 17 34 7 b 33 6 33 6 32 5 b 9 -27 -23 -55 -30 -66 b -38 -78 -19 -109 0 -109 l 0 -109 b 30 -109 151 7 151 89 l 151 89 z"},"J":{"x_min":0,"x_max":460,"ha":460,"o":"m 536 661 b 131 661 -1 488 -1 399 b -1 349 33 307 107 307 b 136 307 166 315 196 329 b 204 333 191 361 181 358 b 163 354 147 352 135 352 b 112 352 102 368 102 389 b 102 476 251 594 423 614 b 289 499 199 196 112 5 b -13 -38 -119 -64 -119 -149 b -119 -197 -66 -231 -14 -231 b 72 -231 150 -139 221 -16 b 327 31 439 106 504 249 b 511 263 466 284 460 270 b 415 173 344 113 266 70 b 386 312 479 612 536 612 b 551 612 567 661 536 661 z m -24 -162 b -39 -162 -48 -156 -48 -140 b -48 -108 3 -91 76 -68 b 44 -126 11 -162 -24 -162 z"},"V":{"x_min":0,"x_max":742,"ha":742,"o":"m 619 608 b 592 608 588 560 606 560 b 745 560 467 -1 288 -29 b 315 102 448 551 494 620 b 504 640 454 659 424 660 b 424 660 424 660 424 660 b 423 660 422 660 422 660 b 421 660 420 660 419 660 b 88 659 -52 488 -52 399 b -52 349 -18 307 55 307 b 84 307 114 315 145 329 b 153 333 139 361 129 358 b 112 354 96 352 83 352 b 61 352 51 368 51 389 b 51 484 241 615 384 617 b 319 464 187 24 187 -30 b 187 -54 236 -70 264 -70 b 532 -68 953 608 619 608 z"},"\"":{"x_min":0,"x_max":367,"ha":367,"o":"m 110 461 b 116 476 196 620 196 631 b 196 651 129 669 118 656 b 110 647 50 504 50 476 b 50 458 102 439 110 461 z m 246 461 b 252 476 331 620 331 631 b 331 651 265 669 253 656 b 246 647 186 504 186 476 b 186 458 237 439 246 461 z"},"7":{"x_min":0,"x_max":397,"ha":397,"o":"m 404 656 b 337 656 146 655 123 655 b 95 655 69 570 112 570 b 148 570 311 571 311 571 b 311 571 -20 76 -20 48 b -20 3 72 -12 72 10 b 72 56 341 459 439 576 b 458 597 442 656 404 656 z"},"S":{"x_min":0,"x_max":508,"ha":508,"o":"m 583 569 b 583 629 536 661 473 661 b 349 661 281 551 281 413 b 281 345 288 302 294 262 b 228 193 159 120 102 48 b 108 150 181 237 181 246 b 181 256 154 292 102 292 b 83 292 0 176 0 68 b 0 21 15 -16 38 -43 b 7 -95 -12 -145 -12 -191 b -12 -217 32 -212 32 -191 b 32 -155 47 -116 72 -73 b 97 -89 127 -98 156 -98 b 277 -98 415 3 415 165 b 415 226 409 266 402 306 b 502 410 583 505 583 569 z m 388 449 b 388 569 467 607 486 607 b 504 607 511 589 511 569 b 511 516 461 447 393 369 b 390 392 388 418 388 449 z m 305 157 b 305 42 227 -42 158 -42 b 141 -42 123 -31 113 -12 b 164 57 233 130 303 202 b 304 188 305 173 305 157 z"},"}":{"x_min":0,"x_max":353,"ha":353,"o":"m -48 -70 b -47 -70 -23 -70 20 -70 b 66 -70 111 -47 128 -4 b 148 46 173 105 208 183 b 224 218 247 237 263 247 b 273 254 275 262 270 272 b 265 284 261 302 271 323 b 315 424 384 575 407 637 b 426 689 405 728 361 728 b 343 728 349 728 279 728 b 249 728 236 693 236 674 b 236 668 240 664 246 664 b 248 664 261 664 303 664 b 318 664 319 651 316 644 b 289 571 223 429 183 336 b 168 299 204 273 204 273 b 204 273 141 250 119 195 b 91 130 63 71 43 18 b 37 3 24 -6 10 -6 b -5 -6 3 -6 -15 -6 b -46 -6 -59 -42 -59 -61 b -59 -66 -55 -70 -48 -70 z"},"Z":{"x_min":0,"x_max":579,"ha":579,"o":"m 785 660 l 785 660 b 739 660 695 649 652 630 b 652 630 652 630 652 630 b 516 630 435 660 366 660 b 205 660 165 574 165 527 b 165 480 201 441 281 441 b 302 441 316 482 303 482 b 303 482 237 478 237 520 b 237 558 271 603 388 603 b 448 603 505 592 582 589 b 422 479 297 266 197 149 b 173 160 150 166 126 166 b 109 166 98 130 119 130 b 136 130 152 126 168 118 b 137 87 109 68 83 68 b 53 68 52 93 70 115 b 80 126 54 155 44 149 b 19 134 -3 108 -3 82 b -3 82 -3 0 102 0 b 147 0 193 25 239 65 b 322 -14 490 -172 626 -172 b 692 -172 740 -116 753 -85 b 760 -69 734 -49 721 -61 b 696 -78 669 -88 640 -88 b 543 -88 368 36 277 101 b 446 275 624 603 791 603 b 820 603 829 660 785 660 z"},"x":{"x_min":0,"x_max":422,"ha":422,"o":"m 422 270 b 380 180 295 73 257 73 b 247 73 238 78 238 97 b 238 125 251 190 263 252 b 367 355 451 439 451 439 b 465 452 409 476 388 455 b 356 424 318 386 278 347 b 280 358 281 368 281 376 b 281 431 256 463 206 463 b 93 463 15 298 0 270 b -5 259 39 236 45 249 b 45 249 111 388 160 388 b 166 388 171 384 171 371 b 171 351 156 281 143 213 b 69 140 0 71 -47 25 b -71 1 1 -7 15 7 b 50 42 89 80 128 119 b 127 109 127 99 127 91 b 127 -3 205 0 205 0 b 315 0 407 126 467 249 b 473 263 429 284 422 270 z"},")":{"x_min":0,"x_max":322,"ha":322,"o":"m -70 -70 b 63 -70 361 241 361 517 b 361 665 301 737 280 737 b 247 737 211 700 211 678 b 211 668 262 616 262 505 b 262 247 11 9 -82 -18 b -94 -21 -92 -70 -70 -70 z"},"&":{"x_min":0,"x_max":549,"ha":549,"o":"m 491 -40 b 469 -23 420 36 372 112 b 419 157 457 207 472 246 b 476 256 450 269 436 269 b 433 269 430 268 429 266 b 415 235 385 193 345 156 b 316 208 289 264 270 321 b 356 378 443 439 443 532 b 443 560 437 649 322 649 b 216 649 149 574 149 480 b 149 440 158 396 172 350 b 84 294 -1 229 -1 137 b -1 93 10 0 150 0 b 203 0 263 28 317 67 b 368 -8 416 -64 437 -80 b 440 -82 444 -83 448 -83 b 471 -83 507 -53 491 -40 z m 247 451 b 247 516 288 570 331 570 b 356 570 365 553 365 532 b 365 483 314 442 251 401 b 248 418 247 435 247 451 z m 165 66 b 119 66 102 105 102 135 b 102 190 145 233 201 274 b 226 217 257 161 288 110 b 249 84 206 66 165 66 z"},"_":{"x_min":0,"x_max":531,"ha":531,"o":"m 445 -86 b 477 -86 490 -49 490 -30 b 490 -24 486 -20 479 -20 b 477 -20 54 -20 50 -20 b 22 -20 5 -53 5 -75 b 5 -80 7 -86 18 -86 b 22 -86 445 -86 445 -86 z"},"v":{"x_min":0,"x_max":465,"ha":465,"o":"m 465 270 b 423 181 357 109 281 109 b 269 109 260 115 254 123 b 343 219 409 350 409 433 b 409 455 308 478 308 451 b 308 376 259 277 204 199 b 179 201 150 183 150 145 b 150 140 151 136 151 131 b 119 96 90 73 74 73 b 64 73 55 79 55 97 b 55 166 192 411 192 433 b 192 453 107 473 93 459 b 84 451 -56 182 -56 92 b -56 -3 35 0 35 0 b 86 0 138 24 187 61 b 213 41 248 36 266 36 b 375 36 451 126 510 249 b 517 263 472 284 465 270 z"},"O":{"x_min":0,"x_max":602,"ha":602,"o":"m 602 270 b 602 270 551 172 435 167 b 575 380 637 661 429 661 b 229 661 91 221 305 122 b 251 43 191 -13 138 -13 b 106 -13 76 26 76 78 b 76 150 111 217 142 270 b 153 289 102 322 66 322 b 56 322 46 319 41 311 b 4 255 -29 182 -29 118 b -29 12 39 -71 130 -71 b 215 -71 310 3 389 103 b 394 103 399 103 404 103 b 572 103 647 249 647 249 b 652 260 627 275 612 275 b 607 275 604 274 602 270 z m 437 613 b 515 613 449 371 345 188 b 220 278 375 613 437 613 z"},"(":{"x_min":0,"x_max":322,"ha":322,"o":"m 437 737 b 304 737 6 425 6 149 b 6 2 66 -70 87 -70 b 120 -70 156 -33 156 -11 b 156 -2 105 51 105 162 b 105 419 356 657 449 684 b 461 687 459 737 437 737 z"},"C":{"x_min":0,"x_max":616,"ha":616,"o":"m 616 270 b 616 270 492 0 239 0 b 193 0 174 30 174 77 b 174 114 187 161 215 210 b 431 210 634 424 634 547 b 634 606 605 660 529 660 b 373 660 203 488 112 312 b 37 354 52 441 74 478 b 81 487 63 507 46 507 b 40 507 34 505 30 498 b -12 426 -26 296 79 239 b 15 76 30 -71 197 -71 b 504 -71 661 249 661 249 b 666 259 641 274 626 274 b 621 274 618 273 616 270 z m 529 573 b 546 573 548 563 548 550 b 548 463 398 307 249 290 b 332 433 460 573 529 573 z"},"W":{"x_min":0,"x_max":924,"ha":924,"o":"m 904 586 b 829 434 649 3 559 3 b 550 3 540 9 540 27 b 540 94 722 447 722 469 b 722 489 637 508 623 495 b 617 489 527 299 472 159 b 427 81 361 3 328 3 b 318 3 305 11 305 30 b 305 93 501 544 552 620 b 562 640 508 659 476 660 b 476 660 476 660 476 660 b 475 660 475 660 474 660 b 474 660 473 660 472 660 b 140 659 0 488 0 399 b 0 349 34 307 108 307 b 137 307 167 315 197 329 b 205 333 192 361 182 358 b 164 354 148 352 136 352 b 113 352 103 368 103 389 b 103 483 292 614 434 617 b 361 475 193 99 193 24 b 193 -70 276 -70 276 -70 b 333 -70 384 -37 430 12 b 437 -73 551 -70 551 -70 b 725 -70 975 484 1003 560 b 1003 580 918 600 904 586 z"},"A":{"x_min":0,"x_max":773,"ha":773,"o":"m 773 270 b 731 180 666 108 589 108 b 577 108 566 109 554 110 b 630 276 730 494 730 550 b 730 608 693 661 615 661 b 464 661 339 364 225 191 b 203 195 183 198 165 198 b 148 198 136 161 158 161 b 169 161 183 159 199 154 b 161 102 123 68 86 68 b 56 68 55 93 73 115 b 83 126 57 155 47 149 b 22 134 0 108 0 82 b 0 82 -6 0 96 0 b 163 0 227 49 287 119 b 328 101 374 81 422 65 b 393 0 373 -48 373 -61 b 373 -94 469 -113 469 -91 b 469 -80 491 -29 522 40 b 540 38 557 36 574 36 b 683 36 759 126 818 249 b 825 263 780 284 773 270 z m 323 164 b 455 341 562 598 615 598 b 639 598 641 583 640 569 b 640 532 529 300 450 128 b 406 138 363 152 323 164 z"},"f":{"x_min":0,"x_max":271,"ha":271,"o":"m 271 270 b 234 190 177 125 112 111 b 105 152 94 185 80 201 b 158 384 251 578 280 620 b 293 647 193 672 183 655 b 129 561 -147 -26 -147 -139 b -147 -233 -56 -230 -56 -230 b 80 -230 120 -83 118 42 b 203 63 266 144 316 249 b 323 263 278 284 271 270 z m -17 -158 b -26 -158 -36 -152 -36 -134 b -36 -104 -14 -37 18 47 b 30 42 42 39 53 38 b 48 -53 24 -158 -17 -158 z"},"Q":{"x_min":0,"x_max":630,"ha":630,"o":"m 747 -111 b 715 -128 680 -138 643 -138 b 516 -138 411 -67 312 -5 b 349 24 384 61 417 103 b 422 103 426 103 431 103 b 600 103 674 249 674 249 b 679 260 654 275 639 275 b 635 275 631 274 630 270 b 630 270 579 172 463 167 b 603 380 664 661 457 661 b 257 661 118 221 332 122 b 307 86 281 54 255 30 b 204 59 155 80 104 84 b 106 153 140 218 170 270 b 181 289 129 322 94 322 b 83 322 74 319 69 311 b 31 255 -1 182 -1 118 b -1 12 67 -71 158 -71 b 191 -71 226 -60 261 -40 b 358 -120 464 -226 624 -226 b 707 -226 772 -166 788 -136 b 796 -123 782 -106 763 -106 b 758 -106 752 -108 747 -111 z m 465 613 b 542 613 477 371 373 188 b 248 278 402 613 465 613 z m 165 -13 b 140 -13 117 10 108 46 b 143 40 177 22 210 -1 b 195 -9 180 -13 165 -13 z"},"w":{"x_min":0,"x_max":705,"ha":705,"o":"m 705 270 b 663 181 597 109 521 109 b 509 109 500 115 494 123 b 583 219 649 350 649 433 b 649 455 548 478 548 451 b 548 376 499 277 444 199 b 419 201 390 183 390 145 b 390 140 391 136 391 131 b 359 96 330 73 314 73 b 304 73 295 79 295 97 b 295 166 432 411 432 433 b 432 453 347 473 333 459 b 329 455 294 390 259 313 b 206 217 108 73 74 73 b 64 73 55 79 55 97 b 55 166 192 411 192 433 b 192 453 107 473 93 459 b 84 451 -56 182 -56 92 b -56 -3 22 0 22 0 b 75 0 133 49 186 112 b 185 105 184 98 184 92 b 184 -3 275 0 275 0 b 326 0 378 24 427 61 b 453 41 488 36 506 36 b 615 36 691 126 750 249 b 757 263 712 284 705 270 z"},"-":{"x_min":0,"x_max":350,"ha":350,"o":"m 268 247 b 305 247 321 290 321 313 b 321 320 316 325 308 325 b 305 325 60 325 55 325 b 22 325 2 286 2 260 b 2 255 4 247 17 247 b 22 247 268 247 268 247 z"},"E":{"x_min":0,"x_max":480,"ha":480,"o":"m 480 269 b 438 180 304 2 190 2 b 29 2 214 295 362 295 b 383 295 413 388 382 388 b 378 388 375 388 371 388 b 335 390 316 410 311 435 b 420 454 500 516 500 581 b 500 632 453 660 410 660 b 301 660 220 567 201 476 b 176 478 151 482 131 489 b 130 489 129 489 129 489 b 115 489 102 454 118 449 b 145 440 172 435 198 432 b 199 401 209 373 229 350 b 102 291 -8 170 -8 61 b -8 -25 53 -72 134 -72 b 297 -72 465 125 525 248 b 530 259 505 274 490 274 b 485 274 482 273 480 269 z m 409 573 b 424 573 428 561 428 549 b 428 515 377 492 314 481 b 326 527 364 573 409 573 z"},"s":{"x_min":0,"x_max":359,"ha":359,"o":"m 359 270 b 328 204 284 148 234 123 b 234 126 234 129 234 132 b 234 190 185 311 185 393 b 185 475 230 496 182 496 b 114 496 65 453 55 408 b 55 408 34 338 0 270 b -5 259 39 236 45 249 b 64 285 81 332 91 363 b 101 332 134 221 136 164 b 114 170 86 156 86 122 b 86 104 89 90 95 79 b 86 75 76 73 67 73 b 44 73 26 93 26 93 b 23 101 -18 75 -15 67 b -15 67 1 0 97 0 b 143 0 176 16 198 40 b 287 58 351 141 403 249 b 410 263 365 284 359 270 z"},">":{"x_min":0,"x_max":389,"ha":389,"o":"m 75 121 b 91 129 288 222 315 237 b 343 251 353 277 338 297 b 323 317 241 441 231 453 b 221 465 151 430 166 406 b 181 382 241 291 241 291 b 241 291 56 197 38 188 b 20 179 45 108 75 121 z"},"l":{"x_min":0,"x_max":234,"ha":234,"o":"m -63 91 b -63 -3 15 0 15 0 b 125 0 219 126 278 249 b 285 263 241 284 234 270 b 192 181 106 72 67 72 b 57 72 48 78 48 96 b 48 164 278 607 278 629 b 278 649 193 669 179 655 b 171 647 -63 161 -63 91 z"},"8":{"x_min":0,"x_max":449,"ha":449,"o":"m 457 553 b 457 585 451 660 325 660 b 251 660 119 596 119 473 b 119 427 139 395 164 368 b 66 307 -27 236 -27 125 b -27 46 25 0 109 0 b 283 0 375 124 375 223 b 375 281 336 323 300 362 b 383 412 457 464 457 553 z m 108 47 b 77 47 60 75 60 99 b 60 202 134 262 219 314 b 244 288 264 259 264 217 b 264 105 159 47 108 47 z m 251 422 b 242 437 237 454 237 472 b 237 546 311 613 350 613 b 372 613 383 598 383 578 b 383 515 324 468 251 422 z"},"\\":{"x_min":0,"x_max":266,"ha":266,"o":"m 179 11 b 184 -11 250 11 250 31 b 250 73 63 647 56 656 b 46 669 -11 650 -11 630 b -11 608 80 363 179 11 z"},"e":{"x_min":0,"x_max":397,"ha":397,"o":"m 397 270 b 355 181 258 74 156 74 b 94 74 80 119 93 173 b 180 186 351 258 351 380 b 351 434 292 464 255 464 b 141 464 -42 286 -42 133 b -42 48 18 0 100 0 b 248 0 383 126 442 249 b 449 263 404 284 397 270 z m 254 371 b 270 371 274 358 274 346 b 274 296 188 233 107 217 b 140 293 207 371 254 371 z"},"b":{"x_min":0,"x_max":478,"ha":478,"o":"m 478 270 b 436 181 370 109 294 109 b 289 109 284 110 280 112 b 351 185 405 283 405 364 b 405 449 332 464 310 464 b 269 464 223 448 179 422 b 235 531 291 625 291 630 b 291 650 206 670 192 656 b 184 648 -2 319 -35 161 b -38 147 -40 133 -40 120 b -40 45 25 0 76 0 b 119 0 167 21 212 53 b 236 39 263 36 279 36 b 388 36 464 126 523 249 b 530 263 485 284 478 270 z m 68 118 b 68 197 218 398 285 398 b 295 398 304 393 304 374 b 304 333 265 260 218 199 b 192 202 163 183 163 145 b 163 142 163 140 164 138 b 135 111 108 93 88 93 b 72 93 68 106 68 118 z"},"%":{"x_min":0,"x_max":481,"ha":481,"o":"m 119 335 b 190 335 254 399 254 470 b 254 519 217 562 159 562 b 87 562 24 498 24 428 b 24 383 56 335 119 335 z m 147 498 b 172 498 189 479 189 458 b 189 427 161 400 130 400 b 103 400 89 420 89 440 b 89 470 116 498 147 498 z m 351 235 b 279 235 216 170 216 100 b 216 55 248 8 311 8 b 382 8 446 71 446 143 b 446 192 409 235 351 235 z m 322 72 b 295 72 281 93 281 112 b 281 142 308 170 339 170 b 365 170 381 152 381 130 b 381 100 353 72 322 72 z m 456 608 b 446 602 -14 59 -27 17 b -32 -1 29 -35 41 -17 b 164 151 505 546 511 565 b 517 583 472 616 456 608 z"},"m":{"x_min":0,"x_max":713,"ha":713,"o":"m 713 270 b 671 181 586 73 548 73 b 538 73 529 79 529 97 b 529 154 618 270 618 364 l 618 364 b 618 449 545 464 523 464 b 472 464 418 440 371 402 b 353 454 300 464 281 464 b 249 464 216 454 184 437 b 166 458 97 472 89 458 b 44 378 -86 86 -86 40 b -86 7 10 -12 10 10 b 10 29 32 90 62 160 b 115 267 210 398 257 398 b 267 398 276 393 276 374 l 276 374 b 276 325 155 87 155 40 b 155 7 251 -12 251 10 b 251 27 271 83 301 155 b 354 263 451 398 498 398 b 508 398 517 393 517 374 l 517 374 b 517 308 417 184 417 92 b 417 -3 496 0 496 0 b 606 0 699 126 758 249 b 765 263 720 284 713 270 z"},"#":{"x_min":0,"x_max":651,"ha":651,"o":"m 608 449 b 607 449 579 449 537 449 b 570 518 593 565 593 575 b 593 600 526 623 510 607 b 506 603 475 535 439 449 b 407 449 374 449 341 449 b 374 518 397 565 397 575 b 397 600 330 623 314 607 b 310 603 279 535 243 449 b 194 449 159 449 158 449 b 127 449 107 411 107 386 b 107 381 109 373 122 373 b 123 373 160 373 211 373 b 199 343 186 313 174 283 b 131 283 101 283 100 283 b 69 283 49 245 49 220 b 49 216 51 208 64 208 b 65 208 98 208 145 208 b 121 145 105 95 105 78 b 105 54 168 34 176 61 b 193 111 213 160 233 208 b 268 208 306 208 341 208 b 317 145 301 95 301 78 b 301 54 364 34 372 61 b 389 111 409 160 429 208 b 478 208 511 208 511 208 b 547 208 563 249 563 271 b 563 278 558 283 550 283 b 549 283 513 283 461 283 b 475 315 489 345 502 373 b 543 373 569 373 569 373 b 605 373 621 415 621 437 b 621 444 616 449 608 449 z m 370 283 b 336 283 299 283 265 283 b 279 315 293 345 306 373 b 340 373 374 373 407 373 b 395 343 382 313 370 283 z"},",":{"x_min":0,"x_max":211,"ha":211,"o":"m 153 83 b 153 115 129 143 91 143 b 43 143 2 101 2 55 b 2 34 13 11 36 1 b 35 0 35 0 34 -1 b 11 -33 -21 -61 -28 -72 b -36 -84 -18 -116 2 -115 l 2 -115 b 32 -115 153 1 153 83 l 153 83 z"},"n":{"x_min":0,"x_max":472,"ha":472,"o":"m 472 270 b 430 181 345 73 307 73 b 297 73 288 79 288 97 b 288 154 377 270 377 364 l 377 364 b 377 449 304 464 282 464 b 249 464 216 454 184 437 b 167 458 98 472 90 458 b 45 378 -86 86 -86 40 b -86 7 10 -12 10 10 b 10 29 33 90 62 160 b 116 267 211 398 257 398 b 267 398 276 393 276 374 l 276 374 b 276 308 176 184 176 92 b 176 -3 255 0 255 0 b 365 0 458 126 517 249 b 524 263 479 284 472 270 z"},"h":{"x_min":0,"x_max":472,"ha":472,"o":"m 472 270 b 430 181 345 73 307 73 b 297 73 288 79 288 97 b 288 154 377 270 377 364 l 377 364 b 377 449 304 464 282 464 b 250 464 217 454 185 438 b 225 523 261 594 278 620 b 292 647 192 672 182 655 b 128 561 -86 100 -86 40 b -86 7 10 -12 10 10 b 10 27 30 83 60 155 b 113 263 210 398 257 398 b 267 398 276 393 276 374 l 276 374 b 276 308 176 184 176 92 b 176 -3 255 0 255 0 b 365 0 458 126 517 249 b 524 263 479 284 472 270 z"},"z":{"x_min":0,"x_max":415,"ha":415,"o":"m 415 270 b 373 180 292 73 232 73 b 192 73 167 80 145 86 b 233 168 335 292 398 387 b 419 419 398 456 365 446 b 286 425 262 464 188 464 b 80 464 0 270 0 270 b -6 256 38 235 45 249 b 100 368 151 378 191 378 b 220 378 253 368 276 360 b 217 261 125 139 14 102 b -61 78 -85 0 4 0 b 19 0 39 7 60 21 b 119 19 148 0 198 0 b 308 0 400 126 460 249 b 466 263 422 284 415 270 z"},"B":{"x_min":0,"x_max":657,"ha":657,"o":"m 396 660 b 134 660 -30 457 -30 387 b -30 326 28 323 49 323 b 81 323 83 356 64 356 b 57 356 53 359 53 372 b 53 420 216 607 395 607 b 493 607 534 562 534 511 b 534 445 460 370 331 370 b 352 414 374 457 397 496 b 408 517 343 538 308 538 b 298 538 290 536 288 532 b 288 532 162 240 62 89 b 46 97 31 102 19 102 b 1 102 -11 64 11 64 b 20 64 30 61 40 56 b 14 21 -9 0 -26 0 b -58 0 -60 25 -40 49 b -31 59 -52 85 -64 85 b -65 85 -66 85 -67 84 b -93 69 -117 41 -117 14 b -117 14 -117 -72 -7 -72 b 40 -72 81 -46 120 -4 b 165 -38 221 -72 294 -72 b 487 -72 573 35 573 143 b 573 210 541 277 481 320 l 471 324 b 713 406 654 660 396 660 z m 331 297 b 400 280 432 224 432 164 b 432 85 374 0 270 0 b 232 0 191 17 153 37 b 204 107 250 202 296 298 b 305 297 316 297 328 297 z"},"K":{"x_min":0,"x_max":666,"ha":666,"o":"m 757 581 b 757 612 726 659 670 659 b 642 659 637 609 656 609 b 668 609 673 604 673 595 b 673 519 528 399 395 347 b 456 487 502 615 539 615 b 553 615 567 659 539 659 b 523 659 492 659 477 659 b 473 659 470 659 467 658 b 101 646 2 483 2 398 b 2 348 36 307 110 307 b 138 307 168 315 198 328 b 207 332 193 360 183 357 b 166 353 150 351 137 351 b 115 351 105 367 105 388 b 105 470 240 581 401 609 b 291 466 202 68 84 68 b 54 68 52 93 71 115 b 81 126 55 155 45 149 b 20 134 -2 108 -2 82 b -2 82 -2 0 103 0 b 199 0 276 105 339 228 b 463 199 349 -136 575 -136 b 622 -136 621 -101 603 -101 b 463 -101 565 232 428 303 b 593 367 757 499 757 581 z"},"R":{"x_min":0,"x_max":620,"ha":620,"o":"m 451 679 b 189 679 25 476 25 406 b 25 345 83 342 104 342 b 136 342 138 375 119 375 b 112 375 108 378 108 391 b 108 439 271 626 450 626 b 707 626 613 311 320 281 b 361 359 399 428 418 456 b 429 477 371 497 340 497 b 330 497 323 495 321 491 b 266 398 76 35 76 -25 b 76 -48 122 -65 151 -65 b 163 -65 172 -62 172 -55 b 172 -28 218 75 271 183 b 318 119 377 -131 589 -131 b 636 -131 635 -96 616 -96 b 503 -96 419 81 364 202 b 737 279 797 679 451 679 z"},"T":{"x_min":0,"x_max":434,"ha":434,"o":"m 778 626 b 761 616 738 599 697 599 b 514 599 398 660 253 660 b 46 660 2 553 2 500 b 2 447 43 410 135 410 b 159 410 167 445 153 445 b 153 445 84 441 84 489 b 84 538 123 607 256 607 b 298 607 339 595 382 581 b 208 448 168 5 23 5 b -11 5 -13 32 8 57 b 18 69 -9 101 -21 94 b -48 78 -73 49 -73 20 b -73 20 -82 -71 34 -71 b 266 -71 375 453 461 552 b 518 532 582 515 656 515 b 749 515 804 591 811 602 b 817 612 795 637 778 626 z"},"P":{"x_min":0,"x_max":635,"ha":635,"o":"m 450 607 b 707 607 613 292 320 262 b 361 341 399 410 418 438 b 429 458 371 478 340 478 b 330 478 323 476 321 472 b 266 380 76 16 76 -44 b 76 -67 122 -84 151 -84 b 163 -84 172 -80 172 -74 b 172 -46 220 62 275 172 b 725 197 823 660 451 660 b 189 660 25 457 25 387 b 25 326 83 323 104 323 b 136 323 138 357 119 357 b 112 357 108 359 108 372 b 108 420 271 607 450 607 z"},"|":{"x_min":0,"x_max":335,"ha":335,"o":"m 189 -90 b 178 98 195 683 190 704 b 186 722 146 715 143 698 b 141 687 126 -38 141 -103 b 146 -122 191 -113 189 -90 z"},"t":{"x_min":0,"x_max":302,"ha":302,"o":"m 302 270 b 260 181 160 57 83 57 b 62 57 50 74 50 99 b 50 138 127 304 191 441 b 230 441 260 441 260 441 b 281 441 302 465 302 478 b 302 482 300 485 295 485 b 293 485 257 485 212 485 b 249 563 277 622 277 630 b 277 650 192 670 178 656 b 175 653 138 579 94 485 b 57 485 29 485 26 485 b 8 485 -16 463 -16 448 b -16 445 -15 441 -7 441 b -5 441 30 441 74 441 b 13 308 -51 156 -51 111 b -51 26 3 0 46 0 b 189 0 288 126 347 249 b 354 263 309 284 302 270 z"},"M":{"x_min":0,"x_max":996,"ha":996,"o":"m 840 -50 b 832 -54 825 -57 819 -57 b 809 -57 800 -52 800 -33 b 800 60 1042 483 1042 577 b 1042 638 992 659 962 659 b 902 659 807 545 728 425 b 756 492 777 548 776 577 b 776 638 727 659 696 659 b 629 659 518 515 434 381 b 485 494 534 596 555 627 b 565 646 517 660 484 660 b 484 660 484 660 484 660 b 483 660 483 660 482 660 b 481 660 480 660 479 660 b 148 659 0 486 0 398 b 0 348 34 306 107 306 b 136 306 166 314 196 328 b 205 332 191 360 181 357 b 164 353 148 351 135 351 b 113 351 103 367 103 388 b 103 482 291 613 434 615 b 359 472 187 93 187 39 b 187 6 290 -13 290 9 b 290 23 302 60 321 110 b 407 296 584 543 631 543 b 640 543 644 536 644 523 b 644 477 447 73 447 39 b 447 9 549 -16 549 13 b 550 17 551 22 552 28 b 613 211 842 543 896 543 b 906 543 909 536 909 523 b 909 477 697 97 697 -21 b 697 -115 776 -112 776 -112 b 821 -112 859 -82 859 -82 b 877 -66 856 -42 840 -50 z"},"g":{"x_min":0,"x_max":500,"ha":500,"o":"m 500 270 b 453 169 377 107 296 64 b 332 147 365 235 398 312 b 398 321 380 330 359 336 b 363 351 364 366 364 380 b 364 434 305 464 268 464 b 131 464 -60 253 -60 101 b -60 15 13 0 35 0 b 84 0 137 26 186 67 b 177 46 168 26 159 7 b 31 -37 -79 -62 -79 -149 b -79 -197 -26 -230 26 -230 b 124 -230 196 -137 258 -17 b 365 30 478 105 545 249 b 551 263 507 284 500 270 z m 70 66 b 60 66 51 71 51 90 b 51 171 202 371 267 371 b 283 371 287 358 287 346 b 287 267 137 66 70 66 z m 16 -162 b 1 -162 -8 -156 -8 -140 b -8 -107 44 -91 118 -67 b 82 -123 46 -162 16 -162 z"},"j":{"x_min":0,"x_max":226,"ha":226,"o":"m 226 270 b 180 170 105 108 24 65 b 81 187 131 324 177 430 b 187 452 85 473 79 459 b 35 360 -43 154 -119 6 b -245 -38 -353 -63 -353 -149 b -353 -197 -300 -230 -248 -230 b -159 -230 -84 -139 -18 -17 b 90 29 204 104 271 249 b 277 263 233 284 226 270 z m -258 -162 b -273 -162 -282 -156 -282 -140 b -282 -108 -232 -92 -161 -69 b -196 -125 -230 -162 -258 -162 z m 163 512 b 210 512 252 553 252 600 b 252 632 228 660 190 660 b 142 660 101 618 101 572 b 101 543 123 512 163 512 z"},"i":{"x_min":0,"x_max":238,"ha":238,"o":"m 238 270 b 196 181 111 73 73 73 b 63 73 54 79 54 97 b 54 155 193 411 193 433 b 193 453 109 473 95 459 b 86 450 -58 177 -58 92 b -58 -3 21 0 21 0 b 131 0 224 126 283 249 b 290 263 245 284 238 270 z m 195 512 b 241 512 283 553 283 600 b 283 632 259 660 221 660 b 174 660 132 618 132 572 b 132 543 154 512 195 512 z"},"y":{"x_min":0,"x_max":475,"ha":475,"o":"m 475 270 b 429 170 354 108 273 65 b 330 187 380 324 426 430 b 436 452 334 473 328 459 b 314 428 297 386 277 338 b 230 245 111 73 74 73 b 64 73 55 79 55 97 b 55 166 191 411 191 433 b 191 453 107 473 93 459 b 84 450 -56 182 -56 92 b -56 -3 22 0 22 0 b 70 0 124 40 173 95 b 159 64 144 34 130 6 b 4 -38 -104 -63 -104 -149 b -104 -197 -51 -230 1 -230 b 90 -230 165 -139 231 -17 b 339 29 453 104 520 249 b 526 263 482 284 475 270 z m -9 -162 b -24 -162 -33 -156 -33 -140 b -33 -108 17 -92 88 -69 b 53 -125 19 -162 -9 -162 z"},"@":{"x_min":0,"x_max":742,"ha":742,"o":"m 343 -16 b 343 -16 298 -47 237 -47 b 123 -47 57 12 57 114 b 57 270 226 452 401 452 b 552 452 584 346 584 280 b 584 214 529 84 439 84 b 432 84 426 88 426 101 b 426 134 483 234 483 249 b 483 255 470 262 456 266 b 458 276 459 286 459 296 b 459 334 418 354 393 354 b 298 354 166 208 166 103 b 166 44 216 34 232 34 b 270 34 312 57 349 91 b 352 32 403 34 403 34 b 569 34 661 191 661 300 b 661 409 613 531 412 531 b 160 531 -38 324 -38 110 b -38 -34 104 -94 226 -94 b 309 -94 362 -48 362 -48 b 375 -40 359 -7 343 -16 z m 256 79 b 249 79 243 83 243 95 b 243 152 347 290 392 290 b 403 290 406 281 406 272 b 406 218 302 79 256 79 z"},".":{"x_min":0,"x_max":272,"ha":272,"o":"m 102 1 b 149 1 191 42 191 89 b 191 121 167 149 129 149 b 81 149 40 107 40 61 b 40 32 62 1 102 1 z"},"p":{"x_min":0,"x_max":467,"ha":467,"o":"m 467 270 b 425 181 359 109 283 109 b 278 109 273 110 269 112 b 340 185 394 283 394 364 b 394 449 321 464 299 464 b 264 464 227 453 190 434 b 178 456 102 473 93 458 b 72 422 28 331 -19 230 b -26 218 -31 205 -36 193 b -105 41 -174 -122 -174 -157 b -174 -190 -78 -209 -78 -187 b -78 -165 -45 -78 -1 23 b 20 8 44 0 65 0 b 108 0 156 21 201 53 b 225 39 252 36 268 36 b 377 36 453 126 512 249 b 519 263 474 284 467 270 z m 57 118 b 57 197 207 398 274 398 b 284 398 293 393 293 374 b 293 333 254 260 207 199 b 181 202 152 183 152 145 b 152 142 152 140 153 138 b 124 111 97 93 77 93 b 61 93 57 106 57 118 z"},"X":{"x_min":0,"x_max":669,"ha":669,"o":"m 744 660 b 645 660 557 545 473 416 b 460 498 451 578 451 646 b 451 654 443 659 432 660 b 432 660 432 660 432 660 b 432 660 431 660 431 660 b 426 661 420 660 414 660 b 92 654 -44 486 -44 399 b -44 349 -10 307 63 307 b 92 307 123 315 153 328 b 161 333 148 360 137 358 b 120 353 104 352 91 352 b 69 352 59 367 59 389 b 59 475 218 593 355 613 b 357 522 374 406 395 296 b 317 177 239 75 157 75 b 123 75 122 103 142 127 b 153 139 125 172 114 165 b 86 149 61 120 61 91 b 61 91 52 0 168 0 b 259 0 343 77 420 176 b 447 52 476 -48 489 -72 b 505 -101 599 -72 588 -53 b 573 -24 530 121 497 286 b 600 445 684 612 744 612 b 759 612 775 660 744 660 z"},"*":{"x_min":0,"x_max":288,"ha":288,"o":"m 202 615 b 200 615 184 610 163 603 b 169 620 174 633 174 636 b 174 652 118 668 108 656 b 106 654 100 637 93 614 b 78 629 67 641 65 642 b 50 649 12 618 18 604 b 19 601 35 584 56 562 b 30 551 10 542 4 537 b -8 528 8 484 27 490 b 30 492 44 496 63 502 b 59 488 57 477 57 472 b 57 457 101 441 108 460 b 109 463 115 477 122 496 b 140 479 154 466 161 463 b 174 456 208 487 195 502 b 192 505 179 519 163 537 b 193 547 215 555 218 557 b 231 568 217 615 202 615 z"},"Y":{"x_min":0,"x_max":781,"ha":781,"o":"m 781 270 b 732 163 647 100 558 57 b 666 252 766 498 822 630 b 822 650 737 669 723 656 b 685 565 628 424 565 285 b 505 195 385 76 352 76 b 342 76 333 81 333 100 b 333 163 502 544 553 620 b 563 640 509 659 477 660 b 477 660 477 660 477 660 b 476 660 476 660 475 660 b 475 660 474 660 473 660 b 141 659 1 488 1 399 b 1 349 35 307 109 307 b 138 307 168 315 198 329 b 206 333 193 361 183 358 b 165 354 149 352 137 352 b 114 352 104 368 104 389 b 104 483 292 614 435 617 b 366 485 221 169 221 94 b 221 0 300 3 300 3 b 352 3 417 43 477 99 b 460 66 443 34 426 5 b 297 -38 186 -64 186 -149 b 186 -197 239 -231 291 -231 b 358 -231 434 -146 509 -27 b 626 19 755 94 826 249 b 832 263 788 284 781 270 z m 281 -162 b 266 -162 257 -156 257 -140 b 257 -109 308 -92 381 -69 b 342 -127 308 -162 281 -162 z"},"c":{"x_min":0,"x_max":394,"ha":394,"o":"m 251 371 b 267 371 271 358 271 346 b 271 328 263 303 250 276 b 240 257 315 254 324 275 b 340 312 348 348 348 380 b 348 434 302 464 252 464 b 153 464 -45 286 -45 133 b -45 47 15 0 97 0 b 245 0 380 126 439 249 b 446 263 400 284 394 270 b 352 180 255 74 153 74 b -8 74 159 371 251 371 z"},"!":{"x_min":0,"x_max":341,"ha":341,"o":"m 102 1 b 149 1 191 42 191 89 b 191 121 167 149 129 149 b 81 149 40 107 40 61 b 40 32 62 1 102 1 z m 177 200 b 246 380 379 608 379 630 b 379 650 294 669 281 656 b 272 647 106 285 106 214 b 106 194 170 178 177 200 z"},"/":{"x_min":0,"x_max":266,"ha":266,"o":"m 80 11 b 135 192 338 608 338 630 b 338 650 271 669 260 656 b 253 647 -1 101 -1 31 b -1 11 75 -11 80 11 z"},"[":{"x_min":0,"x_max":357,"ha":357,"o":"m 118 6 b 94 6 116 6 119 6 z m 450 737 b 447 737 296 737 291 737 b 286 736 281 735 279 732 b 272 724 -47 26 -47 -44 b -47 -57 -16 -73 9 -73 b 10 -73 37 -73 75 -73 b 94 -73 116 -73 139 -73 b 169 -73 182 -38 182 -19 b 182 -13 178 -9 172 -9 b 170 -9 95 -9 53 -9 b 117 168 302 568 345 673 b 364 673 387 673 417 673 b 447 673 460 708 460 727 b 460 733 456 737 450 737 z"},"6":{"x_min":0,"x_max":489,"ha":489,"o":"m 379 660 b 158 660 -21 325 -21 142 b -21 47 38 0 109 0 b 296 0 414 208 414 306 b 414 392 372 430 307 430 b 256 430 205 403 164 374 b 229 491 315 592 375 592 b 392 592 404 583 404 567 b 404 553 386 503 378 488 b 364 460 443 440 460 471 b 491 525 511 660 379 660 z m 300 374 b 317 374 324 363 324 343 b 324 246 200 62 107 62 b 85 62 71 77 71 104 b 71 106 72 107 72 109 b 72 126 78 160 83 181 b 119 298 231 374 300 374 z"},"r":{"x_min":0,"x_max":353,"ha":353,"o":"m 353 270 b 311 180 226 73 187 73 b 178 73 168 78 168 97 b 168 142 233 236 233 297 b 233 434 122 463 30 463 b 6 463 -23 381 -3 381 b 29 381 46 376 46 376 b 46 376 26 323 0 270 b -5 259 39 236 45 249 b 63 283 94 361 94 361 b 115 349 128 323 128 294 b 128 245 57 162 57 91 b 57 -3 136 0 136 0 b 246 0 338 126 397 249 b 404 263 359 284 353 270 z"},"2":{"x_min":0,"x_max":505,"ha":505,"o":"m 342 660 b 204 660 110 556 110 471 b 110 427 200 408 200 441 b 200 512 302 593 360 593 b 386 593 392 569 392 555 b 392 386 -49 187 -49 40 b -49 18 -37 0 -15 0 b 25 0 276 0 319 0 b 361 0 368 87 334 87 b 301 87 134 87 95 87 b 95 166 483 321 483 539 b 483 637 408 660 342 660 z"},"{":{"x_min":0,"x_max":353,"ha":353,"o":"m 415 728 b 414 728 390 728 347 728 b 301 728 256 705 239 661 b 219 612 194 552 159 474 b 143 439 120 420 104 410 b 94 404 92 396 96 386 b 102 374 106 355 96 334 b 52 233 -17 83 -40 20 b -59 -32 -38 -70 6 -70 b 24 -70 18 -70 88 -70 b 118 -70 131 -35 131 -16 b 131 -10 127 -6 121 -6 b 119 -6 106 -6 64 -6 b 49 -6 48 6 51 13 b 78 87 144 229 184 321 b 199 359 163 384 163 384 b 163 384 226 408 248 462 b 276 527 304 586 324 639 b 330 655 343 664 357 664 b 371 664 364 664 382 664 b 413 664 426 699 426 718 b 426 724 422 728 415 728 z"},"9":{"x_min":0,"x_max":485,"ha":485,"o":"m 357 660 b 171 660 53 452 53 354 b 53 268 94 230 160 230 b 211 230 262 257 302 286 b 237 170 152 68 92 68 b 75 68 62 78 62 94 b 62 108 81 157 89 173 b 102 201 24 220 6 190 b -24 136 -44 0 87 0 b 308 0 494 353 494 536 b 494 632 428 660 357 660 z m 394 532 l 394 537 b 393 520 389 500 384 480 b 348 363 236 286 167 286 b 150 286 143 297 143 317 b 143 414 266 598 359 598 b 381 598 395 583 395 556 b 395 555 395 553 395 551 b 395 545 395 538 394 532 z"},"I":{"x_min":0,"x_max":455,"ha":455,"o":"m 536 660 b 131 660 -1 487 -1 398 b -1 349 33 307 107 307 b 136 307 166 314 196 328 b 205 332 191 360 181 358 b 163 353 148 352 135 352 b 113 352 102 367 102 388 b 102 474 250 592 420 613 b 249 462 191 4 48 4 b 14 4 12 31 33 56 b 43 68 16 100 5 93 b -23 77 -47 48 -47 19 b -47 19 -57 -72 59 -72 b 316 -72 445 611 536 611 b 551 611 567 660 536 660 z"},"H":{"x_min":0,"x_max":720,"ha":720,"o":"m 720 270 b 678 181 612 108 536 108 b 520 108 505 109 491 111 b 559 271 655 474 687 522 b 701 548 600 574 590 556 b 555 498 458 291 390 133 b 358 142 327 154 297 164 b 407 347 479 617 533 617 b 547 617 561 661 533 661 b 516 661 486 661 470 661 b 465 661 460 660 455 658 b 109 638 -6 482 -6 399 b -6 349 28 307 102 307 b 131 307 161 315 191 329 b 200 333 186 361 176 358 b 158 354 143 352 130 352 b 108 352 97 368 97 389 b 97 472 233 583 395 610 b 324 519 262 324 196 194 b 182 196 168 198 155 198 b 138 198 126 162 148 162 b 156 162 166 160 176 157 b 144 104 112 69 77 69 b 46 69 45 93 63 115 b 73 126 48 155 37 149 b 12 135 -10 108 -10 82 b -10 82 -10 0 95 0 b 160 0 217 48 266 117 b 296 102 329 85 365 71 b 339 7 323 -41 323 -58 b 323 -92 419 -111 419 -88 b 419 -72 436 -23 462 42 b 481 38 501 36 521 36 b 630 36 706 126 765 249 b 772 263 727 284 720 270 z"},"4":{"x_min":0,"x_max":490,"ha":490,"o":"m 376 254 b 370 254 351 254 325 254 b 398 417 490 606 502 622 b 516 645 447 670 412 656 b 408 655 404 653 401 649 b 374 622 70 331 -19 249 b -49 218 -24 167 -3 167 b 27 167 105 167 183 167 b 158 105 139 55 139 47 b 139 0 236 -15 236 18 b 236 38 257 95 287 167 b 334 167 370 167 378 167 b 418 167 424 254 376 254 z m 103 254 b 103 254 203 352 298 445 b 279 400 248 326 218 254 b 158 254 103 254 103 254 z"},"~":{"x_min":0,"x_max":333,"ha":333,"o":"m 116 674 b 61 674 18 612 18 596 b 18 584 32 569 43 569 b 57 569 82 604 103 604 b 132 604 169 557 222 557 b 275 557 309 616 309 641 b 309 652 294 663 286 663 b 278 663 268 626 236 626 b 199 626 179 674 116 674 z"},"D":{"x_min":0,"x_max":758,"ha":758,"o":"m 454 660 b 197 660 36 456 36 387 b 36 326 94 323 115 323 b 147 323 149 357 130 357 b 123 357 119 359 119 372 b 119 420 282 607 461 607 b 798 607 521 7 303 7 b 271 7 242 18 215 32 b 304 152 378 350 463 496 b 474 517 409 538 374 538 b 364 538 356 536 354 532 b 354 532 227 239 127 88 b 112 97 98 103 85 103 b 67 103 55 65 77 65 b 86 65 96 61 105 56 b 79 21 57 0 39 0 b 7 0 6 25 25 49 b 35 59 14 85 2 85 b 1 85 -1 85 -2 84 b -28 69 -51 41 -51 14 b -51 14 -51 -72 59 -72 b 105 -72 145 -47 183 -7 b 220 -37 266 -65 327 -65 b 673 -65 956 660 454 660 z"},"^":{"x_min":0,"x_max":308,"ha":308,"o":"m 284 575 b 276 592 246 651 216 677 b 201 690 183 690 169 683 b 126 659 18 599 3 580 b -9 564 20 523 43 534 b 57 541 132 580 182 599 b 182 599 232 550 247 534 b 261 520 293 557 284 575 z"},"0":{"x_min":0,"x_max":533,"ha":533,"o":"m 392 660 b 182 660 -1 307 -1 128 b -1 44 45 0 125 0 b 321 0 528 316 528 506 b 528 600 490 660 392 660 z m 140 66 b 117 66 106 80 106 103 b 106 258 308 602 400 602 b 432 602 436 575 436 553 b 436 432 241 66 140 66 z"},"F":{"x_min":0,"x_max":551,"ha":551,"o":"m 850 626 b 833 615 810 598 769 598 b 703 598 645 606 592 617 b 603 629 608 660 583 660 b 553 660 525 652 499 636 b 442 649 386 660 326 660 b 119 660 75 553 75 500 b 75 446 116 410 207 410 b 231 410 240 445 225 445 b 225 445 156 441 156 489 b 156 537 196 606 329 606 b 366 606 402 597 440 585 b 382 518 337 417 297 317 b 259 317 229 317 226 317 b 208 317 184 294 184 279 b 184 276 185 272 193 272 b 196 272 233 272 279 272 b 222 130 171 4 96 4 b 62 4 60 32 81 56 b 92 68 64 101 52 94 b 25 78 0 49 0 20 b 0 20 -9 -71 107 -71 b 235 -71 332 101 408 272 b 439 272 460 272 460 272 b 481 272 502 297 502 309 b 502 314 500 317 495 317 b 493 317 465 317 427 317 b 467 409 501 498 530 553 b 589 533 653 514 728 514 b 821 514 876 591 882 601 b 889 611 867 636 850 626 z"},"`":{"x_min":0,"x_max":286,"ha":286,"o":"m 239 580 b 224 603 95 690 83 693 b 66 698 21 646 32 629 b 38 620 184 544 197 534 b 216 521 249 565 239 580 z"},"k":{"x_min":0,"x_max":454,"ha":454,"o":"m 454 270 b 412 181 324 60 264 60 b 213 60 197 148 193 189 b 261 211 378 271 378 364 b 378 449 305 464 283 464 b 250 464 218 454 186 438 b 226 523 262 594 279 620 b 293 647 192 673 182 655 b 127 562 -85 100 -85 40 b -85 7 11 -12 11 10 b 11 27 31 83 61 155 b 113 263 211 398 258 398 b 268 398 277 393 277 374 b 277 304 151 211 114 200 b 110 199 107 197 107 193 b 109 32 191 0 237 0 b 346 0 440 126 499 249 b 506 263 461 284 454 270 z"},"u":{"x_min":0,"x_max":475,"ha":475,"o":"m 475 270 b 433 181 348 73 310 73 b 300 73 291 79 291 97 b 291 145 427 411 427 433 b 427 453 343 473 329 459 b 324 454 290 386 255 307 b 201 211 107 73 74 73 b 64 73 55 79 55 97 b 55 166 191 411 191 433 b 191 453 107 473 93 459 b 84 450 -56 182 -56 92 b -56 -3 22 0 22 0 b 74 0 130 46 181 107 b 180 101 179 96 179 92 b 179 -3 258 0 258 0 b 368 0 461 126 520 249 b 527 263 482 284 475 270 z"},"]":{"x_min":0,"x_max":357,"ha":357,"o":"m -36 -73 b -34 -73 118 -73 122 -73 b 128 -73 132 -71 134 -69 b 141 -60 460 637 460 708 b 460 721 430 737 405 737 b 404 737 377 737 339 737 b 320 737 298 737 275 737 b 244 737 231 702 231 683 b 231 677 235 673 242 673 b 244 673 319 673 360 673 b 296 495 112 96 69 -9 b 50 -9 26 -9 -3 -9 b -34 -9 -47 -44 -47 -63 b -47 -69 -43 -73 -36 -73 z"},"U":{"x_min":0,"x_max":710,"ha":710,"o":"m 710 270 b 668 180 583 73 545 73 b 535 73 526 78 526 97 b 526 164 756 608 756 630 b 756 650 671 669 657 656 b 652 651 569 481 502 328 b 501 327 500 326 500 325 b 458 236 302 76 263 76 b 254 76 244 81 244 100 b 244 163 414 543 465 620 b 475 640 420 659 389 660 b 389 660 389 660 389 660 b 388 660 388 660 387 660 b 387 660 386 660 385 660 b 53 659 -87 488 -87 399 b -87 349 -53 307 20 307 b 49 307 79 315 110 329 b 118 333 104 361 94 358 b 77 354 61 352 48 352 b 26 352 16 368 16 389 b 16 483 204 614 347 616 b 277 485 133 169 133 94 b 133 0 212 3 212 3 b 275 3 356 62 425 136 b 418 115 415 100 415 91 b 415 -3 493 0 493 0 b 603 0 695 126 755 249 b 761 263 717 284 710 270 z"},"o":{"x_min":0,"x_max":477,"ha":477,"o":"m 477 270 b 435 181 369 109 293 109 b 290 109 287 109 284 110 b 338 173 376 254 376 322 b 376 425 314 464 256 464 b 129 464 -32 293 -32 152 b -32 55 41 0 92 0 b 135 0 179 19 219 49 b 241 39 264 36 278 36 b 387 36 463 126 522 249 b 529 263 484 284 477 270 z m 105 80 b 84 80 78 103 78 122 b 78 217 191 398 254 398 b 274 398 279 378 279 357 b 279 315 256 252 224 198 b 197 205 162 187 162 145 b 162 135 163 125 165 117 b 143 94 122 80 105 80 z"},"N":{"x_min":0,"x_max":785,"ha":785,"o":"m 611 -49 b 603 -54 596 -57 590 -57 b 580 -57 571 -51 571 -33 b 571 60 813 483 813 578 b 813 638 763 660 733 660 b 659 660 514 486 418 343 b 474 470 532 593 556 628 b 566 646 518 660 485 661 b 485 661 485 661 485 661 b 484 661 484 661 483 661 b 482 661 481 661 480 661 b 149 659 1 487 1 398 b 1 349 35 307 108 307 b 137 307 167 315 197 328 b 206 333 192 360 182 358 b 165 353 149 352 136 352 b 114 352 104 367 104 388 b 104 482 292 613 435 615 b 360 473 188 94 188 40 b 188 6 291 -13 291 10 b 291 22 300 53 316 96 b 406 283 619 543 667 543 b 677 543 680 536 680 524 b 680 477 468 97 468 -21 b 468 -115 547 -112 547 -112 b 592 -112 630 -81 630 -81 b 648 -66 627 -42 611 -49 z"},"+":{"x_min":0,"x_max":441,"ha":441,"o":"m 408 325 b 407 325 348 325 279 325 b 313 401 334 435 334 451 b 334 476 265 500 248 483 b 243 478 211 406 179 325 b 112 325 55 325 53 325 b 21 325 0 286 0 260 b 0 255 2 247 16 247 b 18 247 79 247 150 247 b 125 180 106 119 106 97 b 106 72 171 51 179 78 b 203 146 225 201 244 247 b 312 247 368 247 368 247 b 405 247 421 290 421 313 b 421 320 417 325 408 325 z"},"G":{"x_min":0,"x_max":660,"ha":660,"o":"m 660 270 b 613 169 538 108 458 65 b 477 106 495 148 512 190 b 519 205 466 226 434 226 b 423 226 415 224 412 218 b 412 218 337 71 242 71 b 192 71 163 101 163 148 b 163 168 167 189 173 211 b 183 210 193 210 204 210 b 420 210 623 425 623 547 b 623 606 594 660 519 660 b 349 660 170 478 93 305 b 27 353 41 443 63 478 b 70 488 52 508 35 508 b 29 508 23 505 18 498 b -24 426 -37 296 68 239 b 30 109 61 0 212 0 b 258 0 303 24 337 51 b 330 35 322 20 314 5 b 188 -38 81 -64 81 -149 b 81 -198 134 -231 186 -231 b 275 -231 350 -140 416 -18 b 523 28 638 104 705 249 b 709 259 684 274 669 274 b 665 274 661 273 660 270 z m 518 574 b 535 574 538 563 538 550 b 538 433 368 273 211 273 b 207 273 202 273 198 274 b 269 420 431 574 518 574 z m 176 -163 b 161 -163 152 -157 152 -141 b 152 -109 201 -92 272 -69 b 237 -126 204 -163 176 -163 z"},"q":{"x_min":0,"x_max":490,"ha":490,"o":"m 490 270 b 442 165 362 103 277 60 b 326 166 376 268 399 302 b 406 315 385 328 360 336 b 363 351 365 366 365 380 b 365 434 305 464 269 464 b 132 464 -60 253 -60 101 b -60 15 14 0 36 0 b 76 0 120 18 161 47 b 109 -69 64 -181 64 -211 b 64 -244 160 -263 160 -241 b 160 -216 196 -123 242 -20 b 350 27 467 102 535 249 b 541 263 497 284 490 270 z m 71 66 b 61 66 52 71 52 90 b 52 171 202 371 268 371 b 283 371 288 358 288 346 b 288 267 138 66 71 66 z"},"d":{"x_min":0,"x_max":500,"ha":500,"o":"m 500 270 b 458 181 373 73 335 73 b 325 73 316 79 316 97 b 316 165 545 608 545 630 b 545 650 460 670 447 656 b 443 652 393 551 339 434 b 319 454 290 464 268 464 b 131 464 -60 253 -60 101 b -60 15 13 0 35 0 b 91 0 151 34 205 83 b 209 -2 283 0 283 0 b 393 0 486 126 545 249 b 552 263 507 284 500 270 z m 70 66 b 60 66 51 71 51 90 b 51 171 202 371 267 371 b 283 371 287 358 287 346 b 287 267 137 66 70 66 z"},"1":{"x_min":0,"x_max":360,"ha":360,"o":"m 281 649 b 254 622 137 521 38 477 b 9 464 36 385 82 403 b 136 426 196 486 196 486 b 196 486 20 73 20 47 b 20 0 116 -15 116 18 b 116 85 363 594 382 622 b 399 648 309 676 281 649 z"},"5":{"x_min":0,"x_max":467,"ha":467,"o":"m 458 660 b 406 660 255 660 230 660 b 205 660 198 656 185 646 b 169 634 83 455 67 386 b 62 366 94 337 111 340 b 138 344 174 357 209 357 b 277 357 274 303 274 290 b 274 201 172 67 94 67 b 55 67 64 128 74 169 b 86 211 -1 223 -13 186 b -18 171 -80 0 101 0 b 233 0 393 141 393 310 b 393 432 250 451 183 429 b 198 478 218 525 245 568 b 245 568 389 573 429 573 b 468 573 495 660 458 660 z"}}}
